<svg xmlns="http://www.w3.org/2000/svg" xmlns:xlink="http://www.w3.org/1999/xlink" contentStyleType="text/css" data-diagram-type="STATE" height="406px" preserveAspectRatio="none" style="width:1243px;height:406px;background:#FFFFFF;" version="1.1" viewBox="0 0 1243 406" width="1243px" zoomAndPan="magnify"><title>Estado de Navegaci&#243;n WASD en Hoja de C&#225;lculo</title><defs/><g><text fill="#000000" font-family="sans-serif" font-size="14" font-weight="bold" lengthAdjust="spacing" textLength="378.9912" x="425.4838" y="22.9951">Estado de Navegaci&#243;n WASD en Hoja de C&#225;lculo</text><g id="CeldaActiva"><rect fill="#ADD8E6" height="50" rx="12.5" ry="12.5" style="stroke:#00008B;stroke-width:0.5;" width="301.5996" x="439.63" y="350.5569"/><line style="stroke:#00008B;stroke-width:0.5;" x1="439.63" x2="741.2296" y1="376.8538" y2="376.8538"/><text fill="#000000" font-family="sans-serif" font-size="14" lengthAdjust="spacing" textLength="281.5996" x="449.63" y="368.552">Celda Activa [filaActual, columnaActual]</text></g><g id="ProcesarComando"><rect fill="#ADD8E6" height="50" rx="12.5" ry="12.5" style="stroke:#00008B;stroke-width:0.5;" width="152.0361" x="514.41" y="61.1269"/><line style="stroke:#00008B;stroke-width:0.5;" x1="514.41" x2="666.4461" y1="87.4237" y2="87.4237"/><text fill="#000000" font-family="sans-serif" font-size="14" lengthAdjust="spacing" textLength="132.0361" x="524.41" y="79.122">Procesar Comando</text></g><g id="MoverArriba"><rect fill="#ADD8E6" height="52.5938" rx="12.5" ry="12.5" style="stroke:#00008B;stroke-width:0.5;" width="110.1934" x="616.33" y="220.9669"/><line style="stroke:#00008B;stroke-width:0.5;" x1="616.33" x2="726.5234" y1="247.2638" y2="247.2638"/><text fill="#000000" font-family="sans-serif" font-size="14" lengthAdjust="spacing" textLength="90.1934" x="626.33" y="238.962">Mover Arriba</text><text fill="#000000" font-family="sans-serif" font-size="14" lengthAdjust="spacing" textLength="75.4961" x="621.33" y="265.2589">filaActual--</text></g><g id="MoverAbajo"><rect fill="#ADD8E6" height="52.5938" rx="12.5" ry="12.5" style="stroke:#00008B;stroke-width:0.5;" width="108.8535" x="7" y="220.9669"/><line style="stroke:#00008B;stroke-width:0.5;" x1="7" x2="115.8535" y1="247.2638" y2="247.2638"/><text fill="#000000" font-family="sans-serif" font-size="14" lengthAdjust="spacing" textLength="87.2471" x="17.8032" y="238.962">Mover Abajo</text><text fill="#000000" font-family="sans-serif" font-size="14" lengthAdjust="spacing" textLength="88.8535" x="12" y="265.2589">filaActual++</text></g><g id="MoverIzquierda"><rect fill="#ADD8E6" height="52.5938" rx="12.5" ry="12.5" style="stroke:#00008B;stroke-width:0.5;" width="134.3242" x="191.26" y="220.9669"/><line style="stroke:#00008B;stroke-width:0.5;" x1="191.26" x2="325.5842" y1="247.2638" y2="247.2638"/><text fill="#000000" font-family="sans-serif" font-size="14" lengthAdjust="spacing" textLength="112.7109" x="202.0666" y="238.962">Mover Izquierda</text><text fill="#000000" font-family="sans-serif" font-size="14" lengthAdjust="spacing" textLength="114.3242" x="196.26" y="265.2589">columnaActual--</text></g><g id="MoverDerecha"><rect fill="#ADD8E6" height="52.5938" rx="12.5" ry="12.5" style="stroke:#00008B;stroke-width:0.5;" width="147.6816" x="396.59" y="220.9669"/><line style="stroke:#00008B;stroke-width:0.5;" x1="396.59" x2="544.2716" y1="247.2638" y2="247.2638"/><text fill="#000000" font-family="sans-serif" font-size="14" lengthAdjust="spacing" textLength="106.6611" x="417.1003" y="238.962">Mover Derecha</text><text fill="#000000" font-family="sans-serif" font-size="14" lengthAdjust="spacing" textLength="127.6816" x="401.59" y="265.2589">columnaActual++</text></g><g id="Salir"><rect fill="#ADD8E6" height="50" rx="12.5" ry="12.5" style="stroke:#00008B;stroke-width:0.5;" width="51.001" x="1086.93" y="222.2569"/><line style="stroke:#00008B;stroke-width:0.5;" x1="1086.93" x2="1137.931" y1="248.5537" y2="248.5537"/><text fill="#000000" font-family="sans-serif" font-size="14" lengthAdjust="spacing" textLength="31.001" x="1096.93" y="240.252">Salir</text></g><ellipse cx="1041.43" cy="247.2569" fill="#222222" rx="10" ry="10" style="stroke:#222222;stroke-width:1;"/><ellipse cx="1112.43" cy="375.5569" fill="none" rx="11" ry="11" style="stroke:#222222;stroke-width:1;"/><ellipse cx="1112.43" cy="375.5569" fill="#222222" rx="6" ry="6" style="stroke:#222222;stroke-width:1;"/><g class="entity" data-entity="GMN2" data-source-line="35" data-uid="ent0003" id="entity_GMN2"><path d="M701.43,43.2969 L701.43,82.1269 L666.9,86.1269 L701.43,90.1269 L701.43,128.9609 A0,0 0 0 0 701.43,128.9609 L1103.4227,128.9609 A0,0 0 0 0 1103.4227,128.9609 L1103.4227,53.2969 L1093.4227,43.2969 L701.43,43.2969 A0,0 0 0 0 701.43,43.2969 " fill="#FEFFDD" style="stroke:#181818;stroke-width:0.5;"/><path d="M1093.4227,43.2969 L1093.4227,53.2969 L1103.4227,53.2969 L1093.4227,43.2969 " fill="#FEFFDD" style="stroke:#181818;stroke-width:0.5;"/><text fill="#000000" font-family="sans-serif" font-size="13" lengthAdjust="spacing" textLength="276.2754" x="707.43" y="60.3638">Las teclas WASD controlan el movimiento:</text><text fill="#000000" font-family="sans-serif" font-size="13" lengthAdjust="spacing" textLength="188.3667" x="715.6946" y="75.4966">W = Arriba (si filaActual &gt; 0)</text><text fill="#000000" font-family="sans-serif" font-size="13" lengthAdjust="spacing" textLength="241.3696" x="715.6946" y="90.6294">A = Izquierda (si columnaActual &gt; 0)</text><text fill="#000000" font-family="sans-serif" font-size="13" lengthAdjust="spacing" textLength="278.4336" x="715.6946" y="105.7622">S = Abajo (si filaActual &lt; TOTAL_FILAS - 1)</text><text fill="#000000" font-family="sans-serif" font-size="13" lengthAdjust="spacing" textLength="372.728" x="715.6946" y="120.895">D = Derecha (si columnaActual &lt; TOTAL_COLUMNAS - 1)</text></g><!--link *start* to CeldaActiva--><g class="link" data-entity-1="*start*" data-entity-2="CeldaActiva" data-source-line="18" data-uid="lnk3" id="link_*start*_CeldaActiva"><path d="M1033.77,254.1469 C1026.47,259.5869 1015.06,267.6969 1004.43,273.5569 C958.22,299.0069 945.96,305.4169 895.43,320.5569 C846.1,335.3369 796.9273,345.6241 747.2773,353.9541 " fill="none" id="*start*-to-CeldaActiva" style="stroke:#181818;stroke-width:1;"/><polygon fill="#181818" points="741.36,354.9469,750.8978,357.4026,746.2911,354.1196,749.5741,349.5129,741.36,354.9469" style="stroke:#181818;stroke-width:1;"/></g><!--link CeldaActiva to ProcesarComando--><g class="link" data-entity-1="CeldaActiva" data-entity-2="ProcesarComando" data-source-line="19" data-uid="lnk4" id="link_CeldaActiva_ProcesarComando"><path d="M653.33,350.0869 C741.03,312.4069 882.64,236.3969 820.43,158.9669 C781.66,110.7069 743.22,148.3069 684.43,128.9669 C669.83,124.1569 659.9195,120.3113 645.9095,114.0613 " fill="none" id="CeldaActiva-to-ProcesarComando" style="stroke:#181818;stroke-width:1;"/><polygon fill="#181818" points="640.43,111.6169,647.0196,118.9365,644.9962,113.6539,650.2788,111.6306,640.43,111.6169" style="stroke:#181818;stroke-width:1;"/><text fill="#000000" font-family="sans-serif" font-size="13" lengthAdjust="spacing" textLength="81.5991" x="853.5357" y="244.3238">Mostrar hoja</text><text fill="#000000" font-family="sans-serif" font-size="13" lengthAdjust="spacing" textLength="125.8105" x="831.43" y="259.4566">y esperar comando</text></g><!--link ProcesarComando to MoverArriba--><g class="link" data-entity-1="ProcesarComando" data-entity-2="MoverArriba" data-source-line="21" data-uid="lnk5" id="link_ProcesarComando_MoverArriba"><path d="M654.85,111.4669 C675.39,122.6469 695.79,138.1669 707.43,158.9669 C718.55,178.8469 710.4996,198.0176 697.5996,215.8276 " fill="none" id="ProcesarComando-to-MoverArriba" style="stroke:#181818;stroke-width:1;"/><polygon fill="#181818" points="694.08,220.6869,702.5989,215.7444,697.013,216.6375,696.1199,211.0516,694.08,220.6869" style="stroke:#181818;stroke-width:1;"/><text fill="#000000" font-family="sans-serif" font-size="13" lengthAdjust="spacing" textLength="97.1128" x="714.0203" y="172.0338">comando = 'w'</text><text fill="#000000" font-family="sans-serif" font-size="13" lengthAdjust="spacing" textLength="98.2935" x="713.43" y="187.1666">[filaActual &gt; 0]</text></g><!--link ProcesarComando to MoverAbajo--><g class="link" data-entity-1="ProcesarComando" data-entity-2="MoverAbajo" data-source-line="22" data-uid="lnk6" id="link_ProcesarComando_MoverAbajo"><path d="M514.05,91.9369 C373.85,101.5369 87.02,125.1169 57.43,158.9669 C42.95,175.5269 44.5005,195.5581 50.0105,214.8281 " fill="none" id="ProcesarComando-to-MoverAbajo" style="stroke:#181818;stroke-width:1;"/><polygon fill="#181818" points="51.66,220.5969,53.0316,210.844,50.2854,215.7895,45.3399,213.0433,51.66,220.5969" style="stroke:#181818;stroke-width:1;"/><text fill="#000000" font-family="sans-serif" font-size="13" lengthAdjust="spacing" textLength="93.2534" x="109.6524" y="172.0338">comando = 's'</text><text fill="#000000" font-family="sans-serif" font-size="13" lengthAdjust="spacing" textLength="195.6982" x="58.43" y="187.1666">[filaActual &lt; TOTAL_FILAS - 1]</text></g><!--link ProcesarComando to MoverIzquierda--><g class="link" data-entity-1="ProcesarComando" data-entity-2="MoverIzquierda" data-source-line="23" data-uid="lnk7" id="link_ProcesarComando_MoverIzquierda"><path d="M513.94,95.4169 C432.54,105.8069 311.03,126.3269 278.43,158.9669 C262.38,175.0269 258.3391,195.1605 257.6591,214.6605 " fill="none" id="ProcesarComando-to-MoverIzquierda" style="stroke:#181818;stroke-width:1;"/><polygon fill="#181818" points="257.45,220.6569,261.7612,211.8017,257.6243,215.6599,253.7661,211.5229,257.45,220.6569" style="stroke:#181818;stroke-width:1;"/><text fill="#000000" font-family="sans-serif" font-size="13" lengthAdjust="spacing" textLength="94.4468" x="299.3807" y="172.0338">comando = 'a'</text><text fill="#000000" font-family="sans-serif" font-size="13" lengthAdjust="spacing" textLength="134.3481" x="279.43" y="187.1666">[columnaActual &gt; 0]</text></g><!--link ProcesarComando to MoverDerecha--><g class="link" data-entity-1="ProcesarComando" data-entity-2="MoverDerecha" data-source-line="24" data-uid="lnk8" id="link_ProcesarComando_MoverDerecha"><path d="M514.23,101.3869 C481.72,111.6569 446.85,129.1769 427.43,158.9669 C414.6,178.6369 424.4822,198.1154 439.7522,215.9854 " fill="none" id="ProcesarComando-to-MoverDerecha" style="stroke:#181818;stroke-width:1;"/><polygon fill="#181818" points="443.65,220.5469,440.8443,211.1061,440.4018,216.7456,434.7623,216.3032,443.65,220.5469" style="stroke:#181818;stroke-width:1;"/><text fill="#000000" font-family="sans-serif" font-size="13" lengthAdjust="spacing" textLength="94.7324" x="516.1673" y="172.0338">comando = 'd'</text><text fill="#000000" font-family="sans-serif" font-size="13" lengthAdjust="spacing" textLength="270.207" x="428.43" y="187.1666">[columnaActual &lt; TOTAL_COLUMNAS - 1]</text></g><!--link ProcesarComando to Salir--><g class="link" data-entity-1="ProcesarComando" data-entity-2="Salir" data-source-line="25" data-uid="lnk9" id="link_ProcesarComando_Salir"><path d="M638.25,111.4869 C652.77,118.0269 668.98,124.5169 684.43,128.9669 C775.46,155.1369 803.46,136.2869 895.43,158.9669 C975.14,178.6169 995.05,186.2169 1069.43,220.9669 C1075.08,223.6069 1075.7469,223.7689 1081.2669,226.9389 " fill="none" id="ProcesarComando-to-Salir" style="stroke:#181818;stroke-width:1;"/><polygon fill="#181818" points="1086.47,229.9269,1080.6574,221.9762,1082.1341,227.4369,1076.6734,228.9136,1086.47,229.9269" style="stroke:#181818;stroke-width:1;"/><text fill="#000000" font-family="sans-serif" font-size="13" lengthAdjust="spacing" textLength="94.7324" x="1003.43" y="179.5338">comando = 'q'</text></g><!--link MoverArriba to CeldaActiva--><g class="link" data-entity-1="MoverArriba" data-entity-2="CeldaActiva" data-source-line="27" data-uid="lnk10" id="link_MoverArriba_CeldaActiva"><path d="M655.04,273.8169 C640.7,296.1669 623.2779,323.3255 609.2079,345.2755 " fill="none" id="MoverArriba-to-CeldaActiva" style="stroke:#181818;stroke-width:1;"/><polygon fill="#181818" points="605.97,350.3269,614.1944,344.9085,608.6683,346.1174,607.4593,340.5913,605.97,350.3269" style="stroke:#181818;stroke-width:1;"/></g><!--link MoverAbajo to CeldaActiva--><g class="link" data-entity-1="MoverAbajo" data-entity-2="CeldaActiva" data-source-line="28" data-uid="lnk11" id="link_MoverAbajo_CeldaActiva"><path d="M116.05,261.2969 C203.62,282.2069 371.0341,322.1732 482.1641,348.7132 " fill="none" id="MoverAbajo-to-CeldaActiva" style="stroke:#181818;stroke-width:1;"/><polygon fill="#181818" points="488,350.1069,480.1753,344.1257,483.1368,348.9454,478.317,351.9069,488,350.1069" style="stroke:#181818;stroke-width:1;"/></g><!--link MoverIzquierda to CeldaActiva--><g class="link" data-entity-1="MoverIzquierda" data-entity-2="CeldaActiva" data-source-line="29" data-uid="lnk12" id="link_MoverIzquierda_CeldaActiva"><path d="M326.01,273.9669 C384.5,296.2169 462.8921,326.0435 520.4321,347.9335 " fill="none" id="MoverIzquierda-to-CeldaActiva" style="stroke:#181818;stroke-width:1;"/><polygon fill="#181818" points="526.04,350.0669,519.0504,343.1281,521.3668,348.289,516.2059,350.6053,526.04,350.0669" style="stroke:#181818;stroke-width:1;"/></g><!--link MoverDerecha to CeldaActiva--><g class="link" data-entity-1="MoverDerecha" data-entity-2="CeldaActiva" data-source-line="30" data-uid="lnk13" id="link_MoverDerecha_CeldaActiva"><path d="M494.71,273.8169 C515.94,296.1669 542.4178,324.0266 563.2678,345.9766 " fill="none" id="MoverDerecha-to-CeldaActiva" style="stroke:#181818;stroke-width:1;"/><polygon fill="#181818" points="567.4,350.3269,564.1018,341.0467,563.9565,346.7017,558.3015,346.5563,567.4,350.3269" style="stroke:#181818;stroke-width:1;"/></g><!--link Salir to *end*--><g class="link" data-entity-1="Salir" data-entity-2="*end*" data-source-line="32" data-uid="lnk15" id="link_Salir_*end*"><path d="M1112.43,272.6069 C1112.43,300.2769 1112.43,338.1769 1112.43,358.0969 " fill="none" id="Salir-to-*end*" style="stroke:#181818;stroke-width:1;"/><polygon fill="#181818" points="1112.43,364.0969,1116.43,355.0969,1112.43,359.0969,1108.43,355.0969,1112.43,364.0969" style="stroke:#181818;stroke-width:1;"/><text fill="#000000" font-family="sans-serif" font-size="13" lengthAdjust="spacing" textLength="122.5288" x="1113.43" y="316.6238">Finalizar programa</text></g><!--SRC=[XLJDRjim3BxhAOXUigupi08x1Li1rrcm0auxm1rwQ8E1bTL4ZIocifrX6VOmUuOzGbziacmd_WcoaoNouqVo8wry9VKQ3MQG5rW8-CK0Bf6l5ePAdKQao40i5ylYKfN2-SYambJs2PfLRPwIBXAv5N3-WVrch9254l3PKgO4gO1ht8W5SldwLyDTc4n0QFX2p-XyqUiVnKj5Z5KLd4H2fGWXB-G6uVv9AhJd4jKxuAJAJDVN-GbW3XvSONS4NmrnaQE1Y3BKANbWOwnj3NP66s4WD4O-eiTvGtM7CUop1q4lv16VgHNXhfs0ixDkmDNsfPJ2fAqqEvCDxFJMJpOHHl1bAx8szEFsEHDKqdYyFp5s_tOEGN3H4QnrzhwUHfPzHdbXh99BEwm7_HD4lXRkpciLMJ_4qNGbhA7m2KO_HW-wDL2uWFVp8morf2s2l4Vm4MvlRiFu-_Gg3XC8uFm8NLVi7IKwoew8_ochBVsE9HsoDBL5D_6tsVMnylo4kdml8yRQClOdrnBee6lVx45tqqFVoQfIdDdjonYcKblBravyRMXXdmcBqMGNpBWt0UXfy5y1n7Rf2i6L_VX_dTktmP123K91HXkPIQ4B6biem9tjjkxnJIwXknod7X9QoBuVXngCgm8cZijhqgCQh4c5drXyeyIGzj3yJfdGAJW1_W40]--></g></svg>